<svg xmlns="http://www.w3.org/2000/svg" version="1.1" xmlns:xlink="http://www.w3.org/1999/xlink" xmlns:svgjs="http://svgjs.com/svgjs" width="512" height="512" x="0" y="0" viewBox="0 0 64 64" style="enable-background:new 0 0 512 512" xml:space="preserve"><defs><linearGradient id="b" x1="32" x2="32" y1="1.304" y2="63.304" gradientUnits="userSpaceOnUse"><stop offset="0" stop-color="#ffe100"></stop><stop offset="1" stop-color="#f98900"></stop></linearGradient><linearGradient id="a" x1="43" x2="43" y1="29.725" y2="20.193" gradientUnits="userSpaceOnUse"><stop offset=".005" stop-color="#414d4d"></stop><stop offset=".206" stop-color="#3a4545"></stop><stop offset=".522" stop-color="#272e2e"></stop><stop offset=".914" stop-color="#080909"></stop><stop offset="1"></stop></linearGradient><linearGradient xlink:href="#a" id="c" x1="21" x2="21" y1="29.856" y2="20.875"></linearGradient></defs><g><linearGradient id="b" x1="32" x2="32" y1="1.304" y2="63.304" gradientUnits="userSpaceOnUse"><stop offset="0" stop-color="#ffe100"></stop><stop offset="1" stop-color="#f98900"></stop></linearGradient><linearGradient id="a" x1="43" x2="43" y1="29.725" y2="20.193" gradientUnits="userSpaceOnUse"><stop offset=".005" stop-color="#414d4d"></stop><stop offset=".206" stop-color="#3a4545"></stop><stop offset=".522" stop-color="#272e2e"></stop><stop offset=".914" stop-color="#080909"></stop><stop offset="1"></stop></linearGradient><linearGradient xlink:href="#a" id="c" x1="21" x2="21" y1="29.856" y2="20.875"></linearGradient><g data-name="06-Slightly Smiling Face"><path fill="url(&quot;#b&quot;)" d="M32 63C4.3 63 .962 39 1 33v-2C.962 25 4.3 1 32 1s31.038 24 31 30v2c.038 6-3.3 30-31 30z" data-original="url(#b)"></path><ellipse cx="43" cy="25" fill="url(&quot;#a&quot;)" rx="3" ry="5" data-original="url(#a)"></ellipse><ellipse cx="21" cy="25" fill="url(&quot;#c&quot;)" rx="3" ry="5" data-original="url(#c)"></ellipse><g fill="#1D1D1B"><path d="M55.9 12.6a26.388 26.388 0 0 0-1.59-1.926l1.478-1.347c.6.659 1.176 1.357 1.713 2.074zM7.318 53.636C.131 44.909-.008 34.187 0 32.994V31c-.033-4.954 1.83-15.28 9.022-22.521C14.611 2.853 22.342 0 32 0c8.913 0 16.2 2.439 21.671 7.249l-1.32 1.5C47.259 4.271 40.412 2 32 2c-9.1 0-16.359 2.654-21.559 7.889C3.712 16.663 1.969 26.342 2 30.993V33a32.612 32.612 0 0 0 6.861 19.364zM32 64c-9.5 0-17.132-2.76-22.7-8.2l1.4-1.43C15.88 59.432 23.046 62 32 62c9.1 0 16.359-2.654 21.559-7.889 6.729-6.774 8.472-16.453 8.441-21.1V30.89a33.509 33.509 0 0 0-4.789-16.362l1.7-1.056A35.483 35.483 0 0 1 64 30.89V33c.033 4.954-1.83 15.28-9.022 22.521C49.389 61.147 41.658 64 32 64z" fill="#1D1D1B" data-original="#1d1d1b"></path><path d="M43 31c-2.243 0-4-2.636-4-6s1.757-6 4-6 4 2.636 4 6-1.757 6-4 6zm0-10c-.944 0-2 1.71-2 4s1.056 4 2 4 2-1.71 2-4-1.056-4-2-4zM21 31c-2.243 0-4-2.636-4-6s1.757-6 4-6 4 2.636 4 6-1.757 6-4 6zm0-10c-.944 0-2 1.71-2 4s1.056 4 2 4 2-1.71 2-4-1.056-4-2-4zM32 49.013A16.433 16.433 0 0 1 24.134 47c-4.905-2.672-6.05-6.565-6.1-6.73l1.926-.542c.037.127 1 3.268 5.128 5.515a14.383 14.383 0 0 0 13.818 0c4.13-2.243 5.094-5.387 5.133-5.52l1.924.548c-.047.165-1.192 4.058-6.1 6.73A16.433 16.433 0 0 1 32 49.013z" fill="#1D1D1B" data-original="#1d1d1b"></path></g></g></g></svg>